<?xml version="1.0" encoding="utf-8"?>
<!-- Generator: Adobe Illustrator 26.3.1, SVG Export Plug-In . SVG Version: 6.00 Build 0)  -->
<svg version="1.1" id="Layer_1" xmlns="http://www.w3.org/2000/svg" xmlns:xlink="http://www.w3.org/1999/xlink" x="0px" y="0px"
	 viewBox="0 0 1500 1200" style="enable-background:new 0 0 1500 1200;" xml:space="preserve">
<style type="text/css">
	.st0{fill:#FFFFFF;}
	.st1{fill:#B33A23;}
	.st2{opacity:0.25;}
	.st3{fill:#F7D894;}
	.st4{fill:#CCA03E;}
	.st5{fill:#563905;}
</style>
<g>
	<g>
		<path class="st1" d="M749.95,428.58l-14.69-46.38c-19.79-62.48-77.17-104.46-142.78-104.46c-64.88,0-121.95,41.25-142.33,102.74
			c-0.11,0.33-0.22,0.66-0.32,0.99l-29.34-9.55c0.12-0.38,0.25-0.76,0.37-1.14c28.94-88.04,73.97-162.69,130.27-215.92
			c59.06-55.84,127.82-85.36,198.83-85.36c71.02,0,139.78,29.52,198.86,85.36c56.33,53.24,101.37,127.9,130.31,215.95
			c0.12,0.35,0.23,0.7,0.35,1.05c0,0.01,0,0.01,0,0.01c0,0.01,0.01,0.02,0.01,0.04l-29.34,9.55c-0.11-0.33-0.22-0.66-0.32-0.99
			c-20.38-61.5-77.44-102.74-142.33-102.74c-65.59,0-123,41.98-142.84,104.47L749.95,428.58z M592.49,246.89
			c66.54,0,126.05,35.8,157.5,92c31.49-56.2,91.02-92,157.53-92c34.53,0,67.22,9.69,95.09,26.89
			c-21.54-37.28-46.77-69.83-74.97-96.49c-53.24-50.33-114.68-76.93-177.66-76.93c-62.98,0-124.41,26.6-177.63,76.93
			c-28.2,26.66-53.41,59.21-74.95,96.49C525.25,256.58,557.95,246.89,592.49,246.89z"/>
	</g>
	<g>
		<path class="st1" d="M734.54,896.25v-42.36c-32.55-43.5-77.89-83.36-125.81-125.48c-95.2-83.68-193.64-170.2-196.86-294.58
			c-0.06-2.13-0.12-4.2-0.12-6.21c0-18.05,2.68-35.97,7.98-53.27l0.12-0.37c0.18-0.55,0.36-1.14,0.55-1.73l0.1-0.33
			c24.24-74.79,93.36-125.04,171.99-125.04c66.54,0,126.05,35.8,157.5,92c31.49-56.2,91.02-92,157.53-92
			c78.63,0,147.75,50.25,171.99,125.04l0.07,0.23c0.19,0.62,0.38,1.24,0.57,1.81l0.13,0.39c5.29,17.3,7.98,35.23,7.98,53.27
			c0,2.05-0.06,4.15-0.12,6.26c-3.26,124.33-101.74,210.89-196.97,294.59c-49.36,43.38-95.98,84.36-128.71,129.39L734.54,896.25z
			 M449.18,383.55c-4.36,14.32-6.58,29.15-6.58,44.08c0,1.72,0.05,3.48,0.11,5.25c2.88,111.05,96.17,193.05,186.39,272.36
			c42.94,37.74,87.18,76.63,120.87,118.26c33.69-41.61,77.9-80.47,120.82-118.19c90.25-79.33,183.58-161.36,186.49-272.28
			c0.06-1.85,0.11-3.65,0.11-5.4c0-14.92-2.21-29.75-6.57-44.07c-0.24-0.71-0.47-1.47-0.7-2.23
			c-20.14-61.96-77.43-103.58-142.6-103.58c-65.59,0-123,41.98-142.84,104.47l-14.72,46.37l-14.69-46.38
			c-19.79-62.48-77.17-104.46-142.78-104.46c-65.18,0-122.47,41.62-142.6,103.59C449.63,382.15,449.41,382.87,449.18,383.55z"/>
	</g>
	<g>
		<path class="st1" d="M760.77,1124.62c-40.16-42.59-62.27-98.38-62.27-157.09c0-45.64,13.35-89.68,38.6-127.38l25.63,17.18
			c-21.84,32.59-33.38,70.7-33.38,110.2c0,50.81,19.13,99.08,53.87,135.92L760.77,1124.62z"/>
	</g>
	<g>
		<path class="st1" d="M749.97,1130.49c-98.57,0-190.81-55.98-259.73-157.64C422.57,873.05,385.3,740.63,385.3,600
			c0-78.96,11.61-154.95,34.5-225.88l29.44,9.25c-4.4,14.37-6.63,29.26-6.63,44.24c0,1.72,0.05,3.48,0.11,5.25
			c2.88,111.05,96.17,193.05,186.39,272.36c48.45,42.59,98.55,86.63,133.29,134.44l-24.96,18.14
			c-32.72-45.04-79.34-86.01-128.7-129.4c-77.5-68.12-157.15-138.13-185.82-228.91c-4.49,32.78-6.75,66.35-6.75,100.51
			c0,275.5,149.75,499.64,333.81,499.64c6.96,0,13.69-0.32,20.57-0.97l2.91,30.72C765.7,1130.12,757.8,1130.49,749.97,1130.49z"/>
	</g>
	<g>
		<path class="st1" d="M760.77,1124.62c-40.16-42.59-62.27-98.38-62.27-157.09c0-45.64,13.35-89.68,38.6-127.38l4.58-6.84h23.66
			l0.06,15.49H750l12.73,8.53c-21.84,32.59-33.38,70.7-33.38,110.2c0,50.81,19.13,99.08,53.87,135.92L760.77,1124.62z
			 M734.54,848.79h15.37H734.54z"/>
	</g>
	<g>
		<path class="st1" d="M773.4,1129.39l-2.81-30.73c175.66-16.09,313.26-235.13,313.26-498.67c0-34.17-2.26-67.74-6.75-100.53
			c-28.69,90.8-108.38,160.85-185.93,229.01c-49.36,43.38-95.98,84.36-128.71,129.39l-24.96-18.14
			c34.75-47.8,84.85-91.83,133.3-134.42c90.25-79.33,183.58-161.36,186.49-272.28c0.06-1.85,0.11-3.65,0.11-5.4
			c0-14.99-2.23-29.87-6.63-44.25l29.44-9.25c22.89,70.92,34.49,146.92,34.49,225.88c0,134.82-34.65,263.25-97.57,361.62
			C953.41,1061.25,866.85,1120.84,773.4,1129.39z"/>
	</g>
</g>
</svg>
